<?xml version="1.0" encoding="UTF-8"?>
<svg xmlns="http://www.w3.org/2000/svg" style="stroke-dasharray:none; shape-rendering:auto; font-family:'Arial'; text-rendering:auto; fill-opacity:1; color-interpolation:auto; color-rendering:auto; font-size:12; fill:black; stroke:black; image-rendering:auto; stroke-miterlimit:10; stroke-linecap:square; stroke-linejoin:miter; font-style:normal; stroke-width:1; stroke-dashoffset:0; font-weight:normal; stroke-opacity:1;" contentScriptType="text/ecmascript" preserveAspectRatio="xMidYMid meet" zoomAndPan="magnify" version="1.0" contentStyleType="text/css" xml:xlink="http://www.w3.org/1999/xlink" width="841" height="566"><rect x="10" y="450" width="831" height="77" ry="0" rx="0" style="stroke:#000000; fill:#ADC9AC" /><g componentSequence="18"><text x="-488" y="17" transform="rotate(270)" text-anchor="middle" style="font-weight:bold;font-size:10px;stroke:none; fill:#434343"><tspan dy="14" x="-488">Validação</tspan></text></g><rect x="10" y="299" width="831" height="156" ry="0" rx="0" style="stroke:#000000; fill:#82B0B7" /><g componentSequence="9"><text x="-377" y="17" transform="rotate(270)" text-anchor="middle" style="font-weight:bold;font-size:10px;stroke:none; fill:#434343"><tspan dy="14" x="-377">Solicitante</tspan></text></g><rect x="10" y="10" width="831" height="290" ry="0" rx="0" style="stroke:#000000; fill:#FFFFFF" /><rect x="40" y="155" width="801" height="145" ry="0" rx="0" style="stroke:#000000; fill:#B8C9C0" /><g componentSequence="3"><text x="-227" y="47" transform="rotate(270)" text-anchor="middle" style="font-weight:bold;font-size:10px;stroke:none; fill:#434343"><tspan dy="14" x="-227">Manutenção</tspan></text></g><rect x="40" y="10" width="801" height="145" ry="0" rx="0" style="stroke:#000000; fill:#FFFFFF" /><g componentSequence="2"><text x="-82" y="47" transform="rotate(270)" text-anchor="middle" style="font-weight:bold;font-size:10px;stroke:none; fill:#434343"><tspan dy="14" x="-82">Início</tspan></text></g><g componentSequence="1"><text x="-155" y="17" transform="rotate(270)" text-anchor="middle" style="font-weight:bold;font-size:10px;stroke:none; fill:#434343"><tspan dy="14" x="-155">Grupo</tspan></text></g><g sequence="4"><ellipse cx="127" cy="117" rx="17" ry="17" stroke-width="1" style="fill:url(#linearGradient66FF6696FF96B6FFB6_1197595087);" stroke="336633" /></g><g sequence="5"><rect x="80" y="187" width="106" height="84" ry="5" rx="5" style="fill:url(#linearGradientF8FBFEEDF5FCDEEDFAD4E7F8E2E5E9_1235627859);" stroke="191970" /></g><g componentSequence="5"><text x="133" y="202" text-anchor="middle" style="font-weight:bold;font-size:10px;stroke:none; fill:#333399"><tspan dy="14" x="133">Manutenção</tspan><tspan dy="14" x="133">Analisa -</tspan><tspan dy="14" x="133">Ocorrência</tspan></text></g><g sequence="10"><rect x="370" y="201" width="106" height="56" ry="5" rx="5" style="fill:url(#linearGradientF8FBFEEDF5FCDEEDFAD4E7F8E2E5E9_1301918399);" stroke="191970" /></g><g componentSequence="10"><text x="423" y="218" text-anchor="middle" style="font-weight:bold;font-size:10px;stroke:none; fill:#333399"><tspan dy="14" x="423">Anexar O.S</tspan></text></g><g sequence="14"><rect x="220" y="310" width="106" height="84" ry="5" rx="5" style="fill:url(#linearGradientF8FBFEEDF5FCDEEDFAD4E7F8E2E5E9_144385384);" stroke="191970" /></g><g componentSequence="14"><text x="273" y="325" text-anchor="middle" style="font-weight:bold;font-size:10px;stroke:none; fill:#333399"><tspan dy="14" x="273">Solicitante</tspan><tspan dy="14" x="273">validar</tspan><tspan dy="14" x="273">manutenção</tspan></text></g><g sequence="16"><polygon points=" 100 480 130 450 160 480 130 510 100 480" style="fill:url(#linearGradientFAFBFCFFFFCC_1098725909);" stroke="000000" /></g><g componentSequence="16"><text x="130" y="520" text-anchor="middle" style="font-weight:bold;font-size:10px;stroke:none; fill:#333399"><tspan dy="14" x="130">Validado</tspan><tspan dy="14" x="130">Sim ou</tspan><tspan dy="14" x="130">não</tspan></text></g><g sequence="19"><ellipse cx="57" cy="497" rx="17" ry="17" stroke-width="3" style="fill:url(#linearGradientFF6666FF9696FFB6B6_962152926);" stroke="993333" /></g><g sequence="23"><polygon points=" 240 208 270 178 300 208 270 238 240 208" style="fill:url(#linearGradientFAFBFCFFFFCC_961873920);" stroke="000000" /></g><g componentSequence="23"><text x="270" y="248" text-anchor="middle" style="font-weight:bold;font-size:10px;stroke:none; fill:#333399"><tspan dy="14" x="270">Interno</tspan><tspan dy="14" x="270">ou</tspan><tspan dy="14" x="270">externo</tspan></text></g><g sequence="27"><rect x="370" y="455" width="105" height="70" ry="5" rx="5" style="fill:url(#linearGradientF8FBFEEDF5FCDEEDFAD4E7F8E2E5E9_1756682791);" stroke="191970" /></g><g componentSequence="27"><text x="422" y="470" text-anchor="middle" style="font-weight:bold;font-size:10px;stroke:none; fill:#333399"><tspan dy="14" x="422">Solicitante</tspan><tspan dy="14" x="422">validação</tspan></text></g><g componentSequence="8"><text x="139" y="161" style="font-size:10px;font-weight:none;stroke:none; fill:#333399" text-anchor="left" /></g><g componentSequence="17"><text x="207" y="434" style="font-size:10px;font-weight:none;stroke:none; fill:#333399" text-anchor="left" /></g><g componentSequence="20"><text x="97" y="502" style="font-size:10px;font-weight:none;stroke:none; fill:#333399" text-anchor="left" /></g><g componentSequence="24"><text x="223" y="233" style="font-size:10px;font-weight:none;stroke:none; fill:#333399" text-anchor="left" /></g><g componentSequence="25"><text x="345" y="233" style="font-size:10px;font-weight:none;stroke:none; fill:#333399" text-anchor="left" /></g><g componentSequence="26"><text x="281" y="302" style="font-size:10px;font-weight:none;stroke:none; fill:#333399" text-anchor="left" /></g><g componentSequence="30"><text x="432" y="356" style="font-size:10px;font-weight:none;stroke:none; fill:#333399" text-anchor="left" /></g><g componentSequence="29"><text x="275" y="500" style="font-size:10px;font-weight:none;stroke:none; fill:#333399" text-anchor="left" /></g><g componentSequence="21"><text x="141" y="360" style="font-size:10px;font-weight:none;stroke:none; fill:#333399" text-anchor="left" /></g><path style="fill:none; stroke:#000000;stroke-width:1" d="M127.0 134.0 L130.0 186.0" /><polygon style="fill:#000000; stroke:#000000;" points=" 134 176 130 186 124 176 130 178" /><path style="fill:none; stroke:#000000;stroke-width:1" d="M186.0 231.0 L239.0 234.0" /><polygon style="fill:#000000; stroke:#000000;" points=" 229 228 239 234 229 238 231 234" /><path style="fill:none; stroke:#000000;stroke-width:1" d="M130.0 449.0 L132.0 271.0" /><polygon style="fill:#000000; stroke:#000000;" points=" 127 281 132 271 137 281 132 279" /><path style="fill:none; stroke:#000000;stroke-width:1" d="M300.0 234.0 L369.0 231.0" /><polygon style="fill:#000000; stroke:#000000;" points=" 359 226 369 231 359 236 361 231" /><path style="fill:none; stroke:#000000;stroke-width:1" d="M234.0 394.0 L160.0 474.0" /><polygon style="fill:#000000; stroke:#000000;" points=" 170 470 160 474 163 463 165 468" /><path style="fill:none; stroke:#000000;stroke-width:1" d="M271.0 294.0 L272.0 309.0" /><polygon style="fill:#000000; stroke:#000000;" points=" 276 299 272 309 266 299 271 301" /><path style="fill:none; stroke:#000000;stroke-width:1" d="M99.0 503.0 L74.0 499.0" /><polygon style="fill:#000000; stroke:#000000;" points=" 83 506 74 499 85 496 82 500" /><path style="fill:none; stroke:#000000;stroke-width:1" d="M369.0 493.0 L160.0 506.0" /><polygon style="fill:#000000; stroke:#000000;" points=" 170 510 160 506 170 500 168 506" /><path style="fill:none; stroke:#000000;stroke-width:1" d="M422.0 257.0 L422.0 454.0" /><polygon style="fill:#000000; stroke:#000000;" points=" 427 444 422 454 417 444 422 446" /><defs><linearGradient xmlns:xlink="http://www.w3.org/1999/xlink" xlink:href="#linearGradient66FF6696FF96B6FFB6" id="linearGradient66FF6696FF96B6FFB6_1197595087" x1="0" y1="100.0" x2="0" y2="135.0" gradientUnits="userSpaceOnUse" xlink:type="simple" xlink:actuate="onLoad" xlink:show="other" /><linearGradient id="linearGradient66FF6696FF96B6FFB6"><stop style="stop-color:#66FF66;stop-opacity:1;" offset="0.0" id="stop66FF66" /><stop style="stop-color:#96FF96;stop-opacity:1;" offset="0.5" id="stop96FF96" /><stop style="stop-color:#B6FFB6;stop-opacity:1;" offset="1.0" id="stopB6FFB6" /></linearGradient><linearGradient xmlns:xlink="http://www.w3.org/1999/xlink" xlink:href="#linearGradientF8FBFEEDF5FCDEEDFAD4E7F8E2E5E9" id="linearGradientF8FBFEEDF5FCDEEDFAD4E7F8E2E5E9_1235627859" x1="0" y1="187.0" x2="0" y2="293.0" gradientUnits="userSpaceOnUse" xlink:type="simple" xlink:actuate="onLoad" xlink:show="other" /><linearGradient id="linearGradientF8FBFEEDF5FCDEEDFAD4E7F8E2E5E9"><stop style="stop-color:#F8FBFE;stop-opacity:1;" offset="0.0" id="stopF8FBFE" /><stop style="stop-color:#EDF5FC;stop-opacity:1;" offset="0.25" id="stopEDF5FC" /><stop style="stop-color:#DEEDFA;stop-opacity:1;" offset="0.5" id="stopDEEDFA" /><stop style="stop-color:#D4E7F8;stop-opacity:1;" offset="0.75" id="stopD4E7F8" /><stop style="stop-color:#E2E5E9;stop-opacity:1;" offset="1.0" id="stopE2E5E9" /></linearGradient><linearGradient xmlns:xlink="http://www.w3.org/1999/xlink" xlink:href="#linearGradientF8FBFEEDF5FCDEEDFAD4E7F8E2E5E9" id="linearGradientF8FBFEEDF5FCDEEDFAD4E7F8E2E5E9_1301918399" x1="0" y1="201.0" x2="0" y2="307.0" gradientUnits="userSpaceOnUse" xlink:type="simple" xlink:actuate="onLoad" xlink:show="other" /><linearGradient xmlns:xlink="http://www.w3.org/1999/xlink" xlink:href="#linearGradientF8FBFEEDF5FCDEEDFAD4E7F8E2E5E9" id="linearGradientF8FBFEEDF5FCDEEDFAD4E7F8E2E5E9_144385384" x1="0" y1="310.0" x2="0" y2="416.0" gradientUnits="userSpaceOnUse" xlink:type="simple" xlink:actuate="onLoad" xlink:show="other" /><linearGradient xmlns:xlink="http://www.w3.org/1999/xlink" xlink:href="#linearGradientFAFBFCFFFFCC" id="linearGradientFAFBFCFFFFCC_1098725909" x1="0" y1="450.0" x2="0" y2="510.0" gradientUnits="userSpaceOnUse" xlink:type="simple" xlink:actuate="onLoad" xlink:show="other" /><linearGradient id="linearGradientFAFBFCFFFFCC"><stop style="stop-color:#FAFBFC;stop-opacity:1;" offset="0.0" id="stopFAFBFC" /><stop style="stop-color:#FFFFCC;stop-opacity:1;" offset="1.0" id="stopFFFFCC" /></linearGradient><linearGradient xmlns:xlink="http://www.w3.org/1999/xlink" xlink:href="#linearGradientFF6666FF9696FFB6B6" id="linearGradientFF6666FF9696FFB6B6_962152926" x1="0" y1="480.0" x2="0" y2="515.0" gradientUnits="userSpaceOnUse" xlink:type="simple" xlink:actuate="onLoad" xlink:show="other" /><linearGradient id="linearGradientFF6666FF9696FFB6B6"><stop style="stop-color:#FF6666;stop-opacity:1;" offset="0.0" id="stopFF6666" /><stop style="stop-color:#FF9696;stop-opacity:1;" offset="0.5" id="stopFF9696" /><stop style="stop-color:#FFB6B6;stop-opacity:1;" offset="1.0" id="stopFFB6B6" /></linearGradient><linearGradient xmlns:xlink="http://www.w3.org/1999/xlink" xlink:href="#linearGradientFAFBFCFFFFCC" id="linearGradientFAFBFCFFFFCC_961873920" x1="0" y1="178.0" x2="0" y2="238.0" gradientUnits="userSpaceOnUse" xlink:type="simple" xlink:actuate="onLoad" xlink:show="other" /><linearGradient xmlns:xlink="http://www.w3.org/1999/xlink" xlink:href="#linearGradientF8FBFEEDF5FCDEEDFAD4E7F8E2E5E9" id="linearGradientF8FBFEEDF5FCDEEDFAD4E7F8E2E5E9_1756682791" x1="0" y1="455.0" x2="0" y2="560.0" gradientUnits="userSpaceOnUse" xlink:type="simple" xlink:actuate="onLoad" xlink:show="other" /></defs></svg>
