<?xml version="1.0" encoding="UTF-8"?>
<svg xmlns="http://www.w3.org/2000/svg" style="stroke-dasharray:none; shape-rendering:auto; font-family:'Arial'; text-rendering:auto; fill-opacity:1; color-interpolation:auto; color-rendering:auto; font-size:12; fill:black; stroke:black; image-rendering:auto; stroke-miterlimit:10; stroke-linecap:square; stroke-linejoin:miter; font-style:normal; stroke-width:1; stroke-dashoffset:0; font-weight:normal; stroke-opacity:1;" contentScriptType="text/ecmascript" preserveAspectRatio="xMidYMid meet" zoomAndPan="magnify" version="1.0" contentStyleType="text/css" xml:xlink="http://www.w3.org/1999/xlink" width="851" height="615"><rect x="10" y="510" width="841" height="101" ry="0" rx="0" style="stroke:#000000; fill:#D0DAAE" /><g componentSequence="44"><text x="-560" y="17" transform="rotate(270)" text-anchor="middle" style="font-weight:bold;font-size:10px;stroke:none; fill:#434343"><tspan dy="14" x="-560">Compras</tspan></text></g><rect x="10" y="440" width="841" height="71" ry="0" rx="0" style="stroke:#000000; fill:#ADC9AC" /><g componentSequence="35"><text x="-475" y="17" transform="rotate(270)" text-anchor="middle" style="font-weight:bold;font-size:10px;stroke:none; fill:#434343"><tspan dy="14" x="-475">CQFQ 2</tspan></text></g><rect x="10" y="360" width="841" height="81" ry="0" rx="0" style="stroke:#000000; fill:#82B0B7" /><g componentSequence="32"><text x="-400" y="17" transform="rotate(270)" text-anchor="middle" style="font-weight:bold;font-size:10px;stroke:none; fill:#434343"><tspan dy="14" x="-400">Produção</tspan></text></g><rect x="10" y="300" width="841" height="60" ry="0" rx="0" style="stroke:#000000; fill:#C9C3AC" /><g componentSequence="14"><text x="-330" y="17" transform="rotate(270)" text-anchor="middle" style="font-weight:bold;font-size:10px;stroke:none; fill:#434343"><tspan dy="14" x="-330">PCP</tspan></text></g><rect x="10" y="240" width="841" height="62" ry="0" rx="0" style="stroke:#000000; fill:#D6E0D0" /><g componentSequence="13"><text x="-271" y="250" transform="rotate(270)" text-anchor="middle" style="font-weight:bold;font-size:10px;stroke:none; fill:#434343"><tspan dy="14" x="-271">CQM/</tspan><tspan dy="14" x="-271">CQH</tspan></text></g><rect x="10" y="170" width="841" height="70" ry="0" rx="0" style="stroke:#000000; fill:#D0DAAE" /><g componentSequence="11"><text x="-205" y="180" transform="rotate(270)" text-anchor="middle" style="font-weight:bold;font-size:10px;stroke:none; fill:#434343"><tspan dy="14" x="-205">Setor</tspan><tspan dy="14" x="-205">CQFQ</tspan></text></g><rect x="10" y="100" width="841" height="71" ry="0" rx="0" style="stroke:#000000; fill:#ADC9AC" /><g componentSequence="10"><text x="-135" y="110" transform="rotate(270)" text-anchor="middle" style="font-weight:bold;font-size:10px;stroke:none; fill:#434343"><tspan dy="14" x="-135">Setor</tspan><tspan dy="14" x="-135">almox</tspan></text></g><rect x="10" y="10" width="841" height="91" ry="0" rx="0" style="stroke:#000000; fill:#82B0B7" /><g componentSequence="9"><text x="-55" y="17" transform="rotate(270)" text-anchor="middle" style="font-weight:bold;font-size:10px;stroke:none; fill:#434343"><tspan dy="14" x="-55">Setor Compras</tspan></text></g><g sequence="4"><ellipse cx="167" cy="38" rx="17" ry="17" stroke-width="1" style="fill:url(#linearGradient66FF6696FF96B6FFB6_1881896660);" stroke="336633" /></g><g sequence="5"><rect x="160" y="102" width="106" height="70" ry="5" rx="5" style="fill:url(#linearGradientF8FBFEEDF5FCDEEDFAD4E7F8E2E5E9_2129430177);" stroke="191970" /></g><g componentSequence="5"><text x="213" y="117" text-anchor="middle" style="font-weight:bold;font-size:10px;stroke:none; fill:#333399"><tspan dy="14" x="213">Almox. de</tspan><tspan dy="14" x="213">Suprimentos</tspan></text></g><rect x="40" y="10" width="105" height="55" ry="5" rx="5" style="stroke:none; fill:#FFFFE0" /><g componentSequence="7"><text x="50" y="23" text-anchor="left" style="font-weight:bold;font-size:10px;stroke:none; fill:#000000"><tspan dy="14" x="50">Compras</tspan></text></g><path style="fill:none; stroke-width:1; stroke:#000000;" d="M60.0 10.0 L40.0 10.0 L40.0 65.0 L60.0 65.0" /><g sequence="15"><rect x="340" y="178" width="106" height="56" ry="5" rx="5" style="fill:url(#linearGradientF8FBFEEDF5FCDEEDFAD4E7F8E2E5E9_2060656036);" stroke="191970" /></g><g componentSequence="15"><text x="393" y="195" text-anchor="middle" style="font-weight:bold;font-size:10px;stroke:none; fill:#333399"><tspan dy="14" x="393">CQFQ 1°</tspan></text></g><g sequence="17"><polygon points=" 530 190 560 160 590 190 560 220 530 190" style="fill:url(#linearGradientFAFBFCFFFFCC_1070697626);" stroke="000000" /></g><g componentSequence="17"><text x="560" y="230" text-anchor="middle" style="font-weight:bold;font-size:10px;stroke:none; fill:#333399"><tspan dy="14" x="560">Análise</tspan><tspan dy="14" x="560">microbiol</tspan><tspan dy="14" x="560">ógica?</tspan></text></g><g sequence="19"><rect x="380" y="244" width="106" height="56" ry="5" rx="5" style="fill:url(#linearGradientF8FBFEEDF5FCDEEDFAD4E7F8E2E5E9_342347874);" stroke="191970" /></g><g componentSequence="19"><text x="433" y="261" text-anchor="middle" style="font-weight:bold;font-size:10px;stroke:none; fill:#333399"><tspan dy="14" x="433">CQM/CQH</tspan></text></g><g sequence="21"><rect x="650" y="170" width="106" height="56" ry="5" rx="5" style="fill:url(#linearGradientF8FBFEEDF5FCDEEDFAD4E7F8E2E5E9_237278657);" stroke="191970" /></g><g componentSequence="21"><text x="703" y="187" text-anchor="middle" style="font-weight:bold;font-size:10px;stroke:none; fill:#333399"><tspan dy="14" x="703">CQFQ ²</tspan></text></g><g sequence="23"><polygon points=" 770 185 800 155 830 185 800 215 770 185" style="fill:url(#linearGradientFAFBFCFFFFCC_1819842460);" stroke="000000" /></g><g componentSequence="23"><text x="800" y="225" text-anchor="middle" style="font-weight:bold;font-size:10px;stroke:none; fill:#333399"><tspan dy="14" x="800">Exclusiv</tspan><tspan dy="14" x="800">o</tspan></text></g><g sequence="25"><rect x="500" y="20" width="106" height="70" ry="5" rx="5" style="fill:url(#linearGradientF8FBFEEDF5FCDEEDFAD4E7F8E2E5E9_1610511317);" stroke="191970" /></g><g componentSequence="25"><text x="553" y="35" text-anchor="middle" style="font-weight:bold;font-size:10px;stroke:none; fill:#333399"><tspan dy="14" x="553">Compras</tspan><tspan dy="14" x="553">notificação</tspan></text></g><g sequence="27"><ellipse cx="663" cy="64" rx="17" ry="17" stroke-width="3" style="fill:url(#linearGradientFF6666FF9696FFB6B6_1974492296);" stroke="993333" /></g><g sequence="30"><rect x="600" y="303" width="106" height="56" ry="5" rx="5" style="fill:url(#linearGradientF8FBFEEDF5FCDEEDFAD4E7F8E2E5E9_1594905954);" stroke="191970" /></g><g componentSequence="30"><text x="653" y="320" text-anchor="middle" style="font-weight:bold;font-size:10px;stroke:none; fill:#333399"><tspan dy="14" x="653">PCP</tspan></text></g><g sequence="33"><rect x="550" y="367" width="106" height="70" ry="5" rx="5" style="fill:url(#linearGradientF8FBFEEDF5FCDEEDFAD4E7F8E2E5E9_2004680043);" stroke="191970" /></g><g componentSequence="33"><text x="603" y="382" text-anchor="middle" style="font-weight:bold;font-size:10px;stroke:none; fill:#333399"><tspan dy="14" x="603">Setores</tspan><tspan dy="14" x="603">Produtivos</tspan></text></g><g sequence="36"><rect x="370" y="449" width="106" height="56" ry="5" rx="5" style="fill:url(#linearGradientF8FBFEEDF5FCDEEDFAD4E7F8E2E5E9_1538279562);" stroke="191970" /></g><g componentSequence="36"><text x="423" y="466" text-anchor="middle" style="font-weight:bold;font-size:10px;stroke:none; fill:#333399"><tspan dy="14" x="423">CQFQ ³</tspan></text></g><g sequence="38"><polygon points=" 250 456 280 426 310 456 280 486 250 456" style="fill:url(#linearGradientFAFBFCFFFFCC_747838312);" stroke="000000" /></g><g componentSequence="38"><text x="280" y="496" text-anchor="middle" style="font-weight:bold;font-size:10px;stroke:none; fill:#333399"><tspan dy="14" x="280">Exclusiv</tspan><tspan dy="14" x="280">o</tspan></text></g><g sequence="40"><rect x="190" y="244" width="106" height="56" ry="5" rx="5" style="fill:url(#linearGradientF8FBFEEDF5FCDEEDFAD4E7F8E2E5E9_1903554781);" stroke="191970" /></g><g componentSequence="40"><text x="243" y="261" text-anchor="middle" style="font-weight:bold;font-size:10px;stroke:none; fill:#333399"><tspan dy="14" x="243">CQM/CQH</tspan></text></g><g sequence="42"><rect x="90" y="440" width="106" height="70" ry="5" rx="5" style="fill:url(#linearGradientF8FBFEEDF5FCDEEDFAD4E7F8E2E5E9_1634917437);" stroke="191970" /></g><g componentSequence="42"><text x="143" y="455" text-anchor="middle" style="font-weight:bold;font-size:10px;stroke:none; fill:#333399"><tspan dy="14" x="143">CQFQ</tspan><tspan dy="14" x="143">conclusão</tspan></text></g><g sequence="45"><rect x="90" y="540" width="106" height="70" ry="5" rx="5" style="fill:url(#linearGradientF8FBFEEDF5FCDEEDFAD4E7F8E2E5E9_954154113);" stroke="191970" /></g><g componentSequence="45"><text x="143" y="555" text-anchor="middle" style="font-weight:bold;font-size:10px;stroke:none; fill:#333399"><tspan dy="14" x="143">Compras</tspan><tspan dy="14" x="143">notificação 2</tspan></text></g><g sequence="47"><ellipse cx="57" cy="577" rx="17" ry="17" stroke-width="3" style="fill:url(#linearGradientFF6666FF9696FFB6B6_212019369);" stroke="993333" /></g><g sequence="51"><rect x="720" y="303" width="106" height="56" ry="5" rx="5" style="fill:url(#linearGradientF8FBFEEDF5FCDEEDFAD4E7F8E2E5E9_1376699128);" stroke="191970" /></g><g componentSequence="51"><text x="773" y="320" text-anchor="middle" style="font-weight:bold;font-size:10px;stroke:none; fill:#333399"><tspan dy="14" x="773">PCP 2</tspan></text></g><g sequence="53"><rect x="720" y="370" width="106" height="70" ry="5" rx="5" style="fill:url(#linearGradientF8FBFEEDF5FCDEEDFAD4E7F8E2E5E9_627732400);" stroke="191970" /></g><g componentSequence="53"><text x="773" y="385" text-anchor="middle" style="font-weight:bold;font-size:10px;stroke:none; fill:#333399"><tspan dy="14" x="773">Setores</tspan><tspan dy="14" x="773">produtivos 2</tspan></text></g><g sequence="55"><rect x="370" y="534" width="106" height="56" ry="5" rx="5" style="fill:url(#linearGradientF8FBFEEDF5FCDEEDFAD4E7F8E2E5E9_1687188648);" stroke="191970" /></g><g componentSequence="55"><text x="423" y="551" text-anchor="middle" style="font-weight:bold;font-size:10px;stroke:none; fill:#333399"><tspan dy="14" x="423">CQFQ 3</tspan></text></g><g sequence="58"><rect x="210" y="540" width="106" height="70" ry="5" rx="5" style="fill:url(#linearGradientF8FBFEEDF5FCDEEDFAD4E7F8E2E5E9_1902378739);" stroke="191970" /></g><g componentSequence="58"><text x="263" y="555" text-anchor="middle" style="font-weight:bold;font-size:10px;stroke:none; fill:#333399"><tspan dy="14" x="263">Compras notify</tspan><tspan dy="14" x="263">2</tspan></text></g><g sequence="60"><ellipse cx="347" cy="597" rx="17" ry="17" stroke-width="3" style="fill:url(#linearGradientFF6666FF9696FFB6B6_1432283941);" stroke="993333" /></g><g sequence="62"><rect x="320" y="10" width="105" height="56" ry="5" rx="5" style="fill:url(#linearGradientF8FBFEEDF5FCDEEDFAD4E7F8E2E5E9_599726545);" stroke="191970" /></g><g componentSequence="62"><text x="372" y="27" text-anchor="middle" style="font-weight:bold;font-size:10px;stroke:none; fill:#333399"><tspan dy="14" x="372">Validação CQFQ</tspan></text></g><g sequence="64"><polygon points=" 380 116 410 86 440 116 410 146 380 116" style="fill:url(#linearGradientFAFBFCFFFFCC_1147997242);" stroke="000000" /></g><g componentSequence="64"><text x="410" y="156" text-anchor="middle" style="font-weight:bold;font-size:10px;stroke:none; fill:#333399"><tspan dy="14" x="410">Correçã</tspan><tspan dy="14" x="410">o</tspan></text></g><g componentSequence="8"><text x="157" y="38" style="font-size:10px;font-weight:none;stroke:none; fill:#333399" text-anchor="left" /></g><g componentSequence="18"><text x="498" y="212" style="font-size:10px;font-weight:none;stroke:none; fill:#333399" text-anchor="left" /></g><g componentSequence="20"><text x="518" y="240" style="font-size:10px;font-weight:none;stroke:none; fill:#333399" text-anchor="left" /></g><g componentSequence="22"><text x="599" y="272" style="font-size:10px;font-weight:none;stroke:none; fill:#333399" text-anchor="left" /></g><g componentSequence="24"><text x="773" y="203" style="font-size:10px;font-weight:none;stroke:none; fill:#333399" text-anchor="left" /></g><g componentSequence="26"><text x="566" y="125" style="font-size:10px;font-weight:none;stroke:none; fill:#333399" text-anchor="left" /></g><g componentSequence="28"><text x="636" y="61" style="font-size:10px;font-weight:none;stroke:none; fill:#333399" text-anchor="left" /></g><g componentSequence="29"><text x="707" y="108" style="font-size:10px;font-weight:none;stroke:none; fill:#333399" text-anchor="left" /></g><g componentSequence="34"><text x="709" y="399" style="font-size:10px;font-weight:none;stroke:none; fill:#333399" text-anchor="left" /></g><g componentSequence="37"><text x="568" y="476" style="font-size:10px;font-weight:none;stroke:none; fill:#333399" text-anchor="left" /></g><g componentSequence="39"><text x="350" y="477" style="font-size:10px;font-weight:none;stroke:none; fill:#333399" text-anchor="left" /></g><g componentSequence="41"><text x="269" y="363" style="font-size:10px;font-weight:none;stroke:none; fill:#333399" text-anchor="left" /></g><g componentSequence="43"><text x="205" y="370" style="font-size:10px;font-weight:none;stroke:none; fill:#333399" text-anchor="left" /></g><g componentSequence="46"><text x="153" y="525" style="font-size:10px;font-weight:none;stroke:none; fill:#333399" text-anchor="left" /></g><g componentSequence="48"><text x="92" y="576" style="font-size:10px;font-weight:none;stroke:none; fill:#333399" text-anchor="left" /></g><g componentSequence="49"><text x="569" y="323" style="font-size:10px;font-weight:none;stroke:none; fill:#333399" text-anchor="left" /></g><g componentSequence="52"><text x="794" y="280" style="font-size:10px;font-weight:none;stroke:none; fill:#333399" text-anchor="left" /></g><g componentSequence="54"><text x="783" y="364" style="font-size:10px;font-weight:none;stroke:none; fill:#333399" text-anchor="left" /></g><g componentSequence="56"><text x="694" y="561" style="font-size:10px;font-weight:none;stroke:none; fill:#333399" text-anchor="left" /></g><g componentSequence="57"><text x="352" y="514" style="font-size:10px;font-weight:none;stroke:none; fill:#333399" text-anchor="left" /></g><g componentSequence="65"><text x="397" y="76" style="font-size:10px;font-weight:none;stroke:none; fill:#333399" text-anchor="left" /></g><g componentSequence="67"><text x="292" y="85" style="font-size:10px;font-weight:none;stroke:none; fill:#333399" text-anchor="left" /></g><g componentSequence="68"><text x="262" y="38" style="font-size:10px;font-weight:none;stroke:none; fill:#333399" text-anchor="left" /></g><g componentSequence="69"><text x="313" y="171" style="font-size:10px;font-weight:none;stroke:none; fill:#333399" text-anchor="left" /></g><g componentSequence="59"><text x="280" y="534" style="font-size:10px;font-weight:none;stroke:none; fill:#333399" text-anchor="left" /></g><g componentSequence="70"><text x="333" y="137" style="font-size:10px;font-weight:none;stroke:none; fill:#333399" text-anchor="left" /></g><g componentSequence="61"><text x="333" y="591" style="font-size:10px;font-weight:none;stroke:none; fill:#333399" text-anchor="left" /></g><path style="fill:none; stroke:#000000;stroke-dasharray:2" d="M145.0 38.0 L150.0 38.0" /><path style="fill:none; stroke:#000000;stroke-width:1" d="M446.0 209.0 L529.0 215.0" /><polygon style="fill:#000000; stroke:#000000;" points=" 519 209 529 215 519 219 521 214" /><path style="fill:none; stroke:#000000;stroke-width:1" d="M529.0 231.0 L486.0 249.0" /><polygon style="fill:#000000; stroke:#000000;" points=" 497 250 486 249 493 241 493 246" /><path style="fill:none; stroke:#000000;stroke-width:1" d="M557.0 159.0 L554.0 90.0" /><polygon style="fill:#000000; stroke:#000000;" points=" 549 100 554 90 559 100 554 98" /><path style="fill:none; stroke:#000000;stroke-width:1" d="M559.0 276.0 L559.0 330.0 L599.0 330.0" /><polygon style="fill:#000000; stroke:#000000;" points=" 589 325 599 330 589 335 591 330" /><path style="fill:none; stroke:#000000;stroke-width:1" d="M486.0 272.0 L626.0 272.0 L673.0 226.0" /><polygon style="fill:#000000; stroke:#000000;" points=" 662 229 673 226 669 237 667 232" /><path style="fill:none; stroke:#000000;stroke-width:1" d="M756.0 202.0 L769.0 203.0" /><polygon style="fill:#000000; stroke:#000000;" points=" 759 197 769 203 759 207 761 202" /><path style="fill:none; stroke:#000000;stroke-width:1" d="M769.0 167.0 L734.0 122.0 L606.0 74.0" /><polygon style="fill:#000000; stroke:#000000;" points=" 614 82 606 74 617 73 613 77" /><path style="fill:none; stroke:#000000;stroke-width:1" d="M789.0 257.0 L779.0 302.0" /><polygon style="fill:#000000; stroke:#000000;" points=" 786 293 779 302 776 291 781 294" /><path style="fill:none; stroke:#000000;stroke-width:1" d="M606.0 59.0 L646.0 63.0" /><polygon style="fill:#000000; stroke:#000000;" points=" 637 57 646 63 636 67 638 62" /><path style="fill:none; stroke:#000000;stroke-width:1" d="M672.0 359.0 L701.0 401.0 L656.0 401.0" /><polygon style="fill:#000000; stroke:#000000;" points=" 666 406 656 401 666 396 664 401" /><path style="fill:none; stroke:#000000;stroke-width:1" d="M602.0 437.0 L601.0 476.0 L476.0 476.0" /><polygon style="fill:#000000; stroke:#000000;" points=" 486 481 476 476 486 471 484 476" /><path style="fill:none; stroke:#000000;stroke-width:1" d="M369.0 477.0 L310.0 477.0" /><polygon style="fill:#000000; stroke:#000000;" points=" 320 482 310 477 320 472 318 477" /><path style="fill:none; stroke:#000000;stroke-width:1" d="M270.0 425.0 L248.0 300.0" /><polygon style="fill:#000000; stroke:#000000;" points=" 245 311 248 300 255 309 249 308" /><path style="fill:none; stroke:#000000;stroke-width:1" d="M271.0 528.0 L269.0 539.0" /><polygon style="fill:#000000; stroke:#000000;" points=" 276 530 269 539 266 528 270 531" /><path style="fill:none; stroke:#000000;stroke-width:1" d="M374.0 533.0 L310.0 495.0" /><polygon style="fill:#000000; stroke:#000000;" points=" 316 504 310 495 321 496 317 499" /><path style="fill:none; stroke:#000000;stroke-width:1" d="M229.0 300.0 L160.0 439.0" /><polygon style="fill:#000000; stroke:#000000;" points=" 169 432 160 439 160 428 164 432" /><path style="fill:none; stroke:#000000;stroke-width:1" d="M143.0 510.0 L143.0 539.0" /><polygon style="fill:#000000; stroke:#000000;" points=" 148 529 143 539 138 529 143 531" /><path style="fill:none; stroke:#000000;stroke-width:1" d="M89.0 576.0 L74.0 577.0" /><polygon style="fill:#000000; stroke:#000000;" points=" 84 581 74 577 84 571 82 576" /><path style="fill:none; stroke:#000000;stroke-width:1" d="M773.0 359.0 L773.0 369.0" /><polygon style="fill:#000000; stroke:#000000;" points=" 778 359 773 369 768 359 773 361" /><path style="fill:none; stroke:#000000;stroke-width:1" d="M772.0 440.0 L770.0 561.0 L476.0 561.0" /><polygon style="fill:#000000; stroke:#000000;" points=" 486 566 476 561 486 556 484 561" /><path style="fill:none; stroke:#000000;stroke-width:1" d="M316.0 589.0 L330.0 593.0" /><polygon style="fill:#000000; stroke:#000000;" points=" 322 585 330 593 319 595 322 591" /><path style="fill:none; stroke:#000000;stroke-width:1" d="M383.0 66.0 L390.0 85.0" /><polygon style="fill:#000000; stroke:#000000;" points=" 391 74 390 85 382 77 387 77" /><path style="fill:none; stroke:#000000;stroke-width:1" d="M379.0 124.0 L183.0 44.0" /><polygon style="fill:#000000; stroke:#000000;" points=" 190 52 183 44 194 43 190 47" /><path style="fill:none; stroke:#000000;stroke-width:1" d="M185.0 38.0 L319.0 38.0" /><polygon style="fill:#000000; stroke:#000000;" points=" 309 33 319 38 309 43 311 38" /><path style="fill:none; stroke:#000000;stroke-width:1" d="M266.0 157.0 L339.0 185.0" /><polygon style="fill:#000000; stroke:#000000;" points=" 331 177 339 185 328 186 332 182" /><path style="fill:none; stroke:#000000;stroke-width:1" d="M379.0 137.0 L266.0 137.0" /><polygon style="fill:#000000; stroke:#000000;" points=" 276 142 266 137 276 132 274 137" /><defs><linearGradient xmlns:xlink="http://www.w3.org/1999/xlink" xlink:href="#linearGradient66FF6696FF96B6FFB6" id="linearGradient66FF6696FF96B6FFB6_1881896660" x1="0" y1="21.0" x2="0" y2="56.0" gradientUnits="userSpaceOnUse" xlink:type="simple" xlink:actuate="onLoad" xlink:show="other" /><linearGradient id="linearGradient66FF6696FF96B6FFB6"><stop style="stop-color:#66FF66;stop-opacity:1;" offset="0.0" id="stop66FF66" /><stop style="stop-color:#96FF96;stop-opacity:1;" offset="0.5" id="stop96FF96" /><stop style="stop-color:#B6FFB6;stop-opacity:1;" offset="1.0" id="stopB6FFB6" /></linearGradient><linearGradient xmlns:xlink="http://www.w3.org/1999/xlink" xlink:href="#linearGradientF8FBFEEDF5FCDEEDFAD4E7F8E2E5E9" id="linearGradientF8FBFEEDF5FCDEEDFAD4E7F8E2E5E9_2129430177" x1="0" y1="102.0" x2="0" y2="208.0" gradientUnits="userSpaceOnUse" xlink:type="simple" xlink:actuate="onLoad" xlink:show="other" /><linearGradient id="linearGradientF8FBFEEDF5FCDEEDFAD4E7F8E2E5E9"><stop style="stop-color:#F8FBFE;stop-opacity:1;" offset="0.0" id="stopF8FBFE" /><stop style="stop-color:#EDF5FC;stop-opacity:1;" offset="0.25" id="stopEDF5FC" /><stop style="stop-color:#DEEDFA;stop-opacity:1;" offset="0.5" id="stopDEEDFA" /><stop style="stop-color:#D4E7F8;stop-opacity:1;" offset="0.75" id="stopD4E7F8" /><stop style="stop-color:#E2E5E9;stop-opacity:1;" offset="1.0" id="stopE2E5E9" /></linearGradient><linearGradient xmlns:xlink="http://www.w3.org/1999/xlink" xlink:href="#linearGradientF8FBFEEDF5FCDEEDFAD4E7F8E2E5E9" id="linearGradientF8FBFEEDF5FCDEEDFAD4E7F8E2E5E9_2060656036" x1="0" y1="178.0" x2="0" y2="284.0" gradientUnits="userSpaceOnUse" xlink:type="simple" xlink:actuate="onLoad" xlink:show="other" /><linearGradient xmlns:xlink="http://www.w3.org/1999/xlink" xlink:href="#linearGradientFAFBFCFFFFCC" id="linearGradientFAFBFCFFFFCC_1070697626" x1="0" y1="160.0" x2="0" y2="220.0" gradientUnits="userSpaceOnUse" xlink:type="simple" xlink:actuate="onLoad" xlink:show="other" /><linearGradient id="linearGradientFAFBFCFFFFCC"><stop style="stop-color:#FAFBFC;stop-opacity:1;" offset="0.0" id="stopFAFBFC" /><stop style="stop-color:#FFFFCC;stop-opacity:1;" offset="1.0" id="stopFFFFCC" /></linearGradient><linearGradient xmlns:xlink="http://www.w3.org/1999/xlink" xlink:href="#linearGradientF8FBFEEDF5FCDEEDFAD4E7F8E2E5E9" id="linearGradientF8FBFEEDF5FCDEEDFAD4E7F8E2E5E9_342347874" x1="0" y1="244.0" x2="0" y2="350.0" gradientUnits="userSpaceOnUse" xlink:type="simple" xlink:actuate="onLoad" xlink:show="other" /><linearGradient xmlns:xlink="http://www.w3.org/1999/xlink" xlink:href="#linearGradientF8FBFEEDF5FCDEEDFAD4E7F8E2E5E9" id="linearGradientF8FBFEEDF5FCDEEDFAD4E7F8E2E5E9_237278657" x1="0" y1="170.0" x2="0" y2="276.0" gradientUnits="userSpaceOnUse" xlink:type="simple" xlink:actuate="onLoad" xlink:show="other" /><linearGradient xmlns:xlink="http://www.w3.org/1999/xlink" xlink:href="#linearGradientFAFBFCFFFFCC" id="linearGradientFAFBFCFFFFCC_1819842460" x1="0" y1="155.0" x2="0" y2="215.0" gradientUnits="userSpaceOnUse" xlink:type="simple" xlink:actuate="onLoad" xlink:show="other" /><linearGradient xmlns:xlink="http://www.w3.org/1999/xlink" xlink:href="#linearGradientF8FBFEEDF5FCDEEDFAD4E7F8E2E5E9" id="linearGradientF8FBFEEDF5FCDEEDFAD4E7F8E2E5E9_1610511317" x1="0" y1="20.0" x2="0" y2="126.0" gradientUnits="userSpaceOnUse" xlink:type="simple" xlink:actuate="onLoad" xlink:show="other" /><linearGradient xmlns:xlink="http://www.w3.org/1999/xlink" xlink:href="#linearGradientFF6666FF9696FFB6B6" id="linearGradientFF6666FF9696FFB6B6_1974492296" x1="0" y1="47.0" x2="0" y2="82.0" gradientUnits="userSpaceOnUse" xlink:type="simple" xlink:actuate="onLoad" xlink:show="other" /><linearGradient id="linearGradientFF6666FF9696FFB6B6"><stop style="stop-color:#FF6666;stop-opacity:1;" offset="0.0" id="stopFF6666" /><stop style="stop-color:#FF9696;stop-opacity:1;" offset="0.5" id="stopFF9696" /><stop style="stop-color:#FFB6B6;stop-opacity:1;" offset="1.0" id="stopFFB6B6" /></linearGradient><linearGradient xmlns:xlink="http://www.w3.org/1999/xlink" xlink:href="#linearGradientF8FBFEEDF5FCDEEDFAD4E7F8E2E5E9" id="linearGradientF8FBFEEDF5FCDEEDFAD4E7F8E2E5E9_1594905954" x1="0" y1="303.0" x2="0" y2="409.0" gradientUnits="userSpaceOnUse" xlink:type="simple" xlink:actuate="onLoad" xlink:show="other" /><linearGradient xmlns:xlink="http://www.w3.org/1999/xlink" xlink:href="#linearGradientF8FBFEEDF5FCDEEDFAD4E7F8E2E5E9" id="linearGradientF8FBFEEDF5FCDEEDFAD4E7F8E2E5E9_2004680043" x1="0" y1="367.0" x2="0" y2="473.0" gradientUnits="userSpaceOnUse" xlink:type="simple" xlink:actuate="onLoad" xlink:show="other" /><linearGradient xmlns:xlink="http://www.w3.org/1999/xlink" xlink:href="#linearGradientF8FBFEEDF5FCDEEDFAD4E7F8E2E5E9" id="linearGradientF8FBFEEDF5FCDEEDFAD4E7F8E2E5E9_1538279562" x1="0" y1="449.0" x2="0" y2="555.0" gradientUnits="userSpaceOnUse" xlink:type="simple" xlink:actuate="onLoad" xlink:show="other" /><linearGradient xmlns:xlink="http://www.w3.org/1999/xlink" xlink:href="#linearGradientFAFBFCFFFFCC" id="linearGradientFAFBFCFFFFCC_747838312" x1="0" y1="426.0" x2="0" y2="486.0" gradientUnits="userSpaceOnUse" xlink:type="simple" xlink:actuate="onLoad" xlink:show="other" /><linearGradient xmlns:xlink="http://www.w3.org/1999/xlink" xlink:href="#linearGradientF8FBFEEDF5FCDEEDFAD4E7F8E2E5E9" id="linearGradientF8FBFEEDF5FCDEEDFAD4E7F8E2E5E9_1903554781" x1="0" y1="244.0" x2="0" y2="350.0" gradientUnits="userSpaceOnUse" xlink:type="simple" xlink:actuate="onLoad" xlink:show="other" /><linearGradient xmlns:xlink="http://www.w3.org/1999/xlink" xlink:href="#linearGradientF8FBFEEDF5FCDEEDFAD4E7F8E2E5E9" id="linearGradientF8FBFEEDF5FCDEEDFAD4E7F8E2E5E9_1634917437" x1="0" y1="440.0" x2="0" y2="546.0" gradientUnits="userSpaceOnUse" xlink:type="simple" xlink:actuate="onLoad" xlink:show="other" /><linearGradient xmlns:xlink="http://www.w3.org/1999/xlink" xlink:href="#linearGradientF8FBFEEDF5FCDEEDFAD4E7F8E2E5E9" id="linearGradientF8FBFEEDF5FCDEEDFAD4E7F8E2E5E9_954154113" x1="0" y1="540.0" x2="0" y2="646.0" gradientUnits="userSpaceOnUse" xlink:type="simple" xlink:actuate="onLoad" xlink:show="other" /><linearGradient xmlns:xlink="http://www.w3.org/1999/xlink" xlink:href="#linearGradientFF6666FF9696FFB6B6" id="linearGradientFF6666FF9696FFB6B6_212019369" x1="0" y1="560.0" x2="0" y2="595.0" gradientUnits="userSpaceOnUse" xlink:type="simple" xlink:actuate="onLoad" xlink:show="other" /><linearGradient xmlns:xlink="http://www.w3.org/1999/xlink" xlink:href="#linearGradientF8FBFEEDF5FCDEEDFAD4E7F8E2E5E9" id="linearGradientF8FBFEEDF5FCDEEDFAD4E7F8E2E5E9_1376699128" x1="0" y1="303.0" x2="0" y2="409.0" gradientUnits="userSpaceOnUse" xlink:type="simple" xlink:actuate="onLoad" xlink:show="other" /><linearGradient xmlns:xlink="http://www.w3.org/1999/xlink" xlink:href="#linearGradientF8FBFEEDF5FCDEEDFAD4E7F8E2E5E9" id="linearGradientF8FBFEEDF5FCDEEDFAD4E7F8E2E5E9_627732400" x1="0" y1="370.0" x2="0" y2="476.0" gradientUnits="userSpaceOnUse" xlink:type="simple" xlink:actuate="onLoad" xlink:show="other" /><linearGradient xmlns:xlink="http://www.w3.org/1999/xlink" xlink:href="#linearGradientF8FBFEEDF5FCDEEDFAD4E7F8E2E5E9" id="linearGradientF8FBFEEDF5FCDEEDFAD4E7F8E2E5E9_1687188648" x1="0" y1="534.0" x2="0" y2="640.0" gradientUnits="userSpaceOnUse" xlink:type="simple" xlink:actuate="onLoad" xlink:show="other" /><linearGradient xmlns:xlink="http://www.w3.org/1999/xlink" xlink:href="#linearGradientF8FBFEEDF5FCDEEDFAD4E7F8E2E5E9" id="linearGradientF8FBFEEDF5FCDEEDFAD4E7F8E2E5E9_1902378739" x1="0" y1="540.0" x2="0" y2="646.0" gradientUnits="userSpaceOnUse" xlink:type="simple" xlink:actuate="onLoad" xlink:show="other" /><linearGradient xmlns:xlink="http://www.w3.org/1999/xlink" xlink:href="#linearGradientFF6666FF9696FFB6B6" id="linearGradientFF6666FF9696FFB6B6_1432283941" x1="0" y1="580.0" x2="0" y2="615.0" gradientUnits="userSpaceOnUse" xlink:type="simple" xlink:actuate="onLoad" xlink:show="other" /><linearGradient xmlns:xlink="http://www.w3.org/1999/xlink" xlink:href="#linearGradientF8FBFEEDF5FCDEEDFAD4E7F8E2E5E9" id="linearGradientF8FBFEEDF5FCDEEDFAD4E7F8E2E5E9_599726545" x1="0" y1="10.0" x2="0" y2="115.0" gradientUnits="userSpaceOnUse" xlink:type="simple" xlink:actuate="onLoad" xlink:show="other" /><linearGradient xmlns:xlink="http://www.w3.org/1999/xlink" xlink:href="#linearGradientFAFBFCFFFFCC" id="linearGradientFAFBFCFFFFCC_1147997242" x1="0" y1="86.0" x2="0" y2="146.0" gradientUnits="userSpaceOnUse" xlink:type="simple" xlink:actuate="onLoad" xlink:show="other" /></defs></svg>
