<?xml version="1.0" encoding="UTF-8"?>
<svg xmlns="http://www.w3.org/2000/svg" style="stroke-dasharray:none; shape-rendering:auto; font-family:'Arial'; text-rendering:auto; fill-opacity:1; color-interpolation:auto; color-rendering:auto; font-size:12; fill:black; stroke:black; image-rendering:auto; stroke-miterlimit:10; stroke-linecap:square; stroke-linejoin:miter; font-style:normal; stroke-width:1; stroke-dashoffset:0; font-weight:normal; stroke-opacity:1;" contentScriptType="text/ecmascript" preserveAspectRatio="xMidYMid meet" zoomAndPan="magnify" version="1.0" contentStyleType="text/css" xml:xlink="http://www.w3.org/1999/xlink" width="841" height="542"><rect x="10" y="420" width="831" height="110" ry="0" rx="0" style="stroke:#000000; fill:#ADC9AC" /><g componentSequence="23"><text x="-475" y="17" transform="rotate(270)" text-anchor="middle" style="font-weight:bold;font-size:10px;stroke:none; fill:#434343"><tspan dy="14" x="-475">TI</tspan></text></g><rect x="10" y="300" width="831" height="122" ry="0" rx="0" style="stroke:#000000; fill:#82B0B7" /><g componentSequence="22"><text x="-361" y="17" transform="rotate(270)" text-anchor="middle" style="font-weight:bold;font-size:10px;stroke:none; fill:#434343"><tspan dy="14" x="-361">Pagamento</tspan></text></g><rect x="10" y="10" width="831" height="290" ry="0" rx="0" style="stroke:#000000; fill:#FFFFFF" /><rect x="40" y="155" width="801" height="145" ry="0" rx="0" style="stroke:#000000; fill:#C0C0C0" /><g componentSequence="3"><text x="-227" y="47" transform="rotate(270)" text-anchor="middle" style="font-weight:bold;font-size:10px;stroke:none; fill:#434343"><tspan dy="14" x="-227">aprovação</tspan></text></g><rect x="40" y="10" width="801" height="145" ry="0" rx="0" style="stroke:#000000; fill:#9F9F9F" /><g componentSequence="2"><text x="-82" y="47" transform="rotate(270)" text-anchor="middle" style="font-weight:bold;font-size:10px;stroke:none; fill:#434343"><tspan dy="14" x="-82">Solicitante</tspan></text></g><g componentSequence="1"><text x="-155" y="17" transform="rotate(270)" text-anchor="middle" style="font-weight:bold;font-size:10px;stroke:none; fill:#434343"><tspan dy="14" x="-155">Pool</tspan></text></g><g sequence="4"><ellipse cx="167" cy="99" rx="17" ry="17" stroke-width="1" style="fill:url(#linearGradient66FF6696FF96B6FFB6_1019063886);" stroke="336633" /></g><rect x="40" y="10" width="105" height="55" ry="5" rx="5" style="stroke:none; fill:#FFFFE0" /><g componentSequence="7"><text x="50" y="23" text-anchor="left" style="font-weight:bold;font-size:10px;stroke:none; fill:#000000"><tspan dy="14" x="50">início</tspan></text></g><path style="fill:none; stroke-width:1; stroke:#000000;" d="M60.0 10.0 L40.0 10.0 L40.0 65.0 L60.0 65.0" /><g sequence="9"><rect x="100" y="190" width="105" height="84" ry="5" rx="5" style="fill:url(#linearGradientF8FBFEEDF5FCDEEDFAD4E7F8E2E5E9_846878633);" stroke="191970" /></g><g componentSequence="9"><text x="152" y="205" text-anchor="middle" style="font-weight:bold;font-size:10px;stroke:none; fill:#333399"><tspan dy="14" x="152">RH - Confirmar</tspan><tspan dy="14" x="152">direito às férias</tspan></text></g><g sequence="11"><polygon points=" 260 208 290 178 320 208 290 238 260 208" style="fill:url(#linearGradientFAFBFCFFFFCC_910542142);" stroke="000000" /></g><g componentSequence="11"><text x="290" y="248" text-anchor="middle" style="font-weight:bold;font-size:10px;stroke:none; fill:#333399"><tspan dy="14" x="290">Validaçã</tspan><tspan dy="14" x="290">o</tspan></text></g><g sequence="14"><rect x="370" y="190" width="105" height="84" ry="5" rx="5" style="fill:url(#linearGradientF8FBFEEDF5FCDEEDFAD4E7F8E2E5E9_1934056850);" stroke="191970" /></g><g componentSequence="14"><text x="422" y="205" text-anchor="middle" style="font-weight:bold;font-size:10px;stroke:none; fill:#333399"><tspan dy="14" x="422">RH - Solicitar</tspan><tspan dy="14" x="422">para</tspan><tspan dy="14" x="422">contabilidade</tspan></text></g><g sequence="16"><ellipse cx="339" cy="115" rx="17" ry="17" stroke-width="3" style="fill:url(#linearGradientFF6666FF9696FFB6B6_576279146);" stroke="993333" /></g><g sequence="18"><rect x="370" y="330" width="105" height="84" ry="5" rx="5" style="fill:url(#linearGradientF8FBFEEDF5FCDEEDFAD4E7F8E2E5E9_1123978903);" stroke="191970" /></g><g componentSequence="18"><text x="422" y="345" text-anchor="middle" style="font-weight:bold;font-size:10px;stroke:none; fill:#333399"><tspan dy="14" x="422">RH - Incluir</tspan><tspan dy="14" x="422">pagamento na</tspan><tspan dy="14" x="422">conta</tspan></text></g><g sequence="20"><polygon points=" 530 350 560 320 590 350 560 380 530 350" style="fill:url(#linearGradientFAFBFCFFFFCC_1510662083);" stroke="000000" /></g><g componentSequence="20"><text x="560" y="390" text-anchor="middle" style="font-weight:bold;font-size:10px;stroke:none; fill:#333399"><tspan dy="14" x="560">Exclusiv</tspan><tspan dy="14" x="560">o</tspan></text></g><g sequence="24"><ellipse cx="637" cy="367" rx="17" ry="17" stroke-width="3" style="fill:url(#linearGradientFF6666FF9696FFB6B6_325624541);" stroke="993333" /></g><g sequence="26"><rect x="510" y="460" width="105" height="56" ry="5" rx="5" style="fill:url(#linearGradientF8FBFEEDF5FCDEEDFAD4E7F8E2E5E9_2068474072);" stroke="191970" /></g><g componentSequence="26"><text x="562" y="477" text-anchor="middle" style="font-weight:bold;font-size:10px;stroke:none; fill:#333399"><tspan dy="14" x="562">TI</tspan></text></g><g sequence="28"><polygon points=" 400 470 430 440 460 470 430 500 400 470" style="fill:url(#linearGradientFAFBFCFFFFCC_1299630864);" stroke="000000" /></g><g componentSequence="28"><text x="430" y="510" text-anchor="middle" style="font-weight:bold;font-size:10px;stroke:none; fill:#333399"><tspan dy="14" x="430">Exclusiv</tspan><tspan dy="14" x="430">o</tspan></text></g><g sequence="31"><ellipse cx="317" cy="487" rx="17" ry="17" stroke-width="3" style="fill:url(#linearGradientFF6666FF9696FFB6B6_1091498426);" stroke="993333" /></g><g componentSequence="10"><text x="171" y="153" style="font-size:10px;font-weight:none;stroke:none; fill:#333399" text-anchor="left" /></g><g componentSequence="12"><text x="242" y="230" style="font-size:10px;font-weight:none;stroke:none; fill:#333399" text-anchor="left" /></g><g componentSequence="15"><text x="355" y="230" style="font-size:10px;font-weight:none;stroke:none; fill:#333399" text-anchor="left" /></g><g componentSequence="19"><text x="432" y="302" style="font-size:10px;font-weight:none;stroke:none; fill:#333399" text-anchor="left" /></g><g componentSequence="21"><text x="512" y="371" style="font-size:10px;font-weight:none;stroke:none; fill:#333399" text-anchor="left" /></g><g componentSequence="17"><text x="332" y="155" style="font-size:10px;font-weight:none;stroke:none; fill:#333399" text-anchor="left" /></g><g componentSequence="29"><text x="495" y="490" style="font-size:10px;font-weight:none;stroke:none; fill:#333399" text-anchor="left" /></g><g componentSequence="27"><text x="572" y="441" style="font-size:10px;font-weight:none;stroke:none; fill:#333399" text-anchor="left" /></g><g componentSequence="30"><text x="436" y="427" style="font-size:10px;font-weight:none;stroke:none; fill:#333399" text-anchor="left" /></g><g componentSequence="32"><text x="377" y="489" style="font-size:10px;font-weight:none;stroke:none; fill:#333399" text-anchor="left" /></g><g componentSequence="25"><text x="615" y="369" style="font-size:10px;font-weight:none;stroke:none; fill:#333399" text-anchor="left" /></g><g componentSequence="13"><text x="232" y="157" style="font-size:10px;font-weight:none;stroke:none; fill:#333399" text-anchor="left" /></g><g componentSequence="8"><text x="177" y="53" style="font-size:10px;font-weight:none;stroke:none; fill:#333399" text-anchor="left" /></g><path style="fill:none; stroke:#000000;stroke-dasharray:2" d="M145.0 45.0 L167.0 48.0 L167.0 81.0" /><path style="fill:none; stroke:#000000;stroke-width:1" d="M165.0 116.0 L157.0 189.0" /><polygon style="fill:#000000; stroke:#000000;" points=" 163 180 157 189 153 179 158 181" /><path style="fill:none; stroke:#000000;stroke-width:1" d="M205.0 231.0 L259.0 229.0" /><polygon style="fill:#000000; stroke:#000000;" points=" 249 224 259 229 249 234 251 229" /><path style="fill:none; stroke:#000000;stroke-width:1" d="M259.0 196.0 L179.0 112.0" /><polygon style="fill:#000000; stroke:#000000;" points=" 182 123 179 112 190 116 185 118" /><path style="fill:none; stroke:#000000;stroke-width:1" d="M320.0 229.0 L369.0 230.0" /><polygon style="fill:#000000; stroke:#000000;" points=" 359 225 369 230 359 235 361 230" /><path style="fill:none; stroke:#000000;stroke-width:1" d="M312.0 177.0 L332.0 131.0" /><polygon style="fill:#000000; stroke:#000000;" points=" 323 138 332 131 333 142 329 138" /><path style="fill:none; stroke:#000000;stroke-width:1" d="M422.0 274.0 L422.0 329.0" /><polygon style="fill:#000000; stroke:#000000;" points=" 427 319 422 329 417 319 422 321" /><path style="fill:none; stroke:#000000;stroke-width:1" d="M475.0 371.0 L529.0 371.0" /><polygon style="fill:#000000; stroke:#000000;" points=" 519 366 529 371 519 376 521 371" /><path style="fill:none; stroke:#000000;stroke-width:1" d="M590.0 369.0 L620.0 367.0" /><polygon style="fill:#000000; stroke:#000000;" points=" 610 363 620 367 610 373 612 368" /><path style="fill:none; stroke:#000000;stroke-width:1" d="M561.0 422.0 L562.0 459.0" /><polygon style="fill:#000000; stroke:#000000;" points=" 567 449 562 459 557 449 562 451" /><path style="fill:none; stroke:#000000;stroke-width:1" d="M509.0 489.0 L460.0 490.0" /><polygon style="fill:#000000; stroke:#000000;" points=" 470 495 460 490 470 485 468 490" /><path style="fill:none; stroke:#000000;stroke-width:1" d="M426.0 439.0 L425.0 414.0" /><polygon style="fill:#000000; stroke:#000000;" points=" 420 424 425 414 430 424 425 422" /><path style="fill:none; stroke:#000000;stroke-width:1" d="M399.0 490.0 L334.0 487.0" /><polygon style="fill:#000000; stroke:#000000;" points=" 344 492 334 487 344 482 342 487" /><defs><linearGradient xmlns:xlink="http://www.w3.org/1999/xlink" xlink:href="#linearGradient66FF6696FF96B6FFB6" id="linearGradient66FF6696FF96B6FFB6_1019063886" x1="0" y1="82.0" x2="0" y2="117.0" gradientUnits="userSpaceOnUse" xlink:type="simple" xlink:actuate="onLoad" xlink:show="other" /><linearGradient id="linearGradient66FF6696FF96B6FFB6"><stop style="stop-color:#66FF66;stop-opacity:1;" offset="0.0" id="stop66FF66" /><stop style="stop-color:#96FF96;stop-opacity:1;" offset="0.5" id="stop96FF96" /><stop style="stop-color:#B6FFB6;stop-opacity:1;" offset="1.0" id="stopB6FFB6" /></linearGradient><linearGradient xmlns:xlink="http://www.w3.org/1999/xlink" xlink:href="#linearGradientF8FBFEEDF5FCDEEDFAD4E7F8E2E5E9" id="linearGradientF8FBFEEDF5FCDEEDFAD4E7F8E2E5E9_846878633" x1="0" y1="190.0" x2="0" y2="295.0" gradientUnits="userSpaceOnUse" xlink:type="simple" xlink:actuate="onLoad" xlink:show="other" /><linearGradient id="linearGradientF8FBFEEDF5FCDEEDFAD4E7F8E2E5E9"><stop style="stop-color:#F8FBFE;stop-opacity:1;" offset="0.0" id="stopF8FBFE" /><stop style="stop-color:#EDF5FC;stop-opacity:1;" offset="0.25" id="stopEDF5FC" /><stop style="stop-color:#DEEDFA;stop-opacity:1;" offset="0.5" id="stopDEEDFA" /><stop style="stop-color:#D4E7F8;stop-opacity:1;" offset="0.75" id="stopD4E7F8" /><stop style="stop-color:#E2E5E9;stop-opacity:1;" offset="1.0" id="stopE2E5E9" /></linearGradient><linearGradient xmlns:xlink="http://www.w3.org/1999/xlink" xlink:href="#linearGradientFAFBFCFFFFCC" id="linearGradientFAFBFCFFFFCC_910542142" x1="0" y1="178.0" x2="0" y2="238.0" gradientUnits="userSpaceOnUse" xlink:type="simple" xlink:actuate="onLoad" xlink:show="other" /><linearGradient id="linearGradientFAFBFCFFFFCC"><stop style="stop-color:#FAFBFC;stop-opacity:1;" offset="0.0" id="stopFAFBFC" /><stop style="stop-color:#FFFFCC;stop-opacity:1;" offset="1.0" id="stopFFFFCC" /></linearGradient><linearGradient xmlns:xlink="http://www.w3.org/1999/xlink" xlink:href="#linearGradientF8FBFEEDF5FCDEEDFAD4E7F8E2E5E9" id="linearGradientF8FBFEEDF5FCDEEDFAD4E7F8E2E5E9_1934056850" x1="0" y1="190.0" x2="0" y2="295.0" gradientUnits="userSpaceOnUse" xlink:type="simple" xlink:actuate="onLoad" xlink:show="other" /><linearGradient xmlns:xlink="http://www.w3.org/1999/xlink" xlink:href="#linearGradientFF6666FF9696FFB6B6" id="linearGradientFF6666FF9696FFB6B6_576279146" x1="0" y1="98.0" x2="0" y2="133.0" gradientUnits="userSpaceOnUse" xlink:type="simple" xlink:actuate="onLoad" xlink:show="other" /><linearGradient id="linearGradientFF6666FF9696FFB6B6"><stop style="stop-color:#FF6666;stop-opacity:1;" offset="0.0" id="stopFF6666" /><stop style="stop-color:#FF9696;stop-opacity:1;" offset="0.5" id="stopFF9696" /><stop style="stop-color:#FFB6B6;stop-opacity:1;" offset="1.0" id="stopFFB6B6" /></linearGradient><linearGradient xmlns:xlink="http://www.w3.org/1999/xlink" xlink:href="#linearGradientF8FBFEEDF5FCDEEDFAD4E7F8E2E5E9" id="linearGradientF8FBFEEDF5FCDEEDFAD4E7F8E2E5E9_1123978903" x1="0" y1="330.0" x2="0" y2="435.0" gradientUnits="userSpaceOnUse" xlink:type="simple" xlink:actuate="onLoad" xlink:show="other" /><linearGradient xmlns:xlink="http://www.w3.org/1999/xlink" xlink:href="#linearGradientFAFBFCFFFFCC" id="linearGradientFAFBFCFFFFCC_1510662083" x1="0" y1="320.0" x2="0" y2="380.0" gradientUnits="userSpaceOnUse" xlink:type="simple" xlink:actuate="onLoad" xlink:show="other" /><linearGradient xmlns:xlink="http://www.w3.org/1999/xlink" xlink:href="#linearGradientFF6666FF9696FFB6B6" id="linearGradientFF6666FF9696FFB6B6_325624541" x1="0" y1="350.0" x2="0" y2="385.0" gradientUnits="userSpaceOnUse" xlink:type="simple" xlink:actuate="onLoad" xlink:show="other" /><linearGradient xmlns:xlink="http://www.w3.org/1999/xlink" xlink:href="#linearGradientF8FBFEEDF5FCDEEDFAD4E7F8E2E5E9" id="linearGradientF8FBFEEDF5FCDEEDFAD4E7F8E2E5E9_2068474072" x1="0" y1="460.0" x2="0" y2="565.0" gradientUnits="userSpaceOnUse" xlink:type="simple" xlink:actuate="onLoad" xlink:show="other" /><linearGradient xmlns:xlink="http://www.w3.org/1999/xlink" xlink:href="#linearGradientFAFBFCFFFFCC" id="linearGradientFAFBFCFFFFCC_1299630864" x1="0" y1="440.0" x2="0" y2="500.0" gradientUnits="userSpaceOnUse" xlink:type="simple" xlink:actuate="onLoad" xlink:show="other" /><linearGradient xmlns:xlink="http://www.w3.org/1999/xlink" xlink:href="#linearGradientFF6666FF9696FFB6B6" id="linearGradientFF6666FF9696FFB6B6_1091498426" x1="0" y1="470.0" x2="0" y2="505.0" gradientUnits="userSpaceOnUse" xlink:type="simple" xlink:actuate="onLoad" xlink:show="other" /></defs></svg>
